<svg width="24" height="24" viewBox="0 0 24 24" fill="none" xmlns="http://www.w3.org/2000/svg">
<g opacity="0.32">
<path d="M12.2267 22.5C18.0257 22.5 22.7267 17.799 22.7267 12C22.7267 6.20101 18.0257 1.5 12.2267 1.5C6.42776 1.5 1.72675 6.20101 1.72675 12C1.72675 17.799 6.42776 22.5 12.2267 22.5Z" stroke="white" stroke-width="1.6" stroke-linecap="round" stroke-linejoin="round"/>
<path d="M7.50168 17.25C9.95028 14.6859 14.4768 14.5652 16.9517 17.25M14.8464 9.375C14.8464 10.824 13.6704 12 12.2183 12C11.8732 12.0006 11.5314 11.9331 11.2124 11.8014C10.8935 11.6697 10.6036 11.4765 10.3594 11.2326C10.1152 10.9888 9.92148 10.6993 9.7893 10.3805C9.65711 10.0618 9.58908 9.72008 9.58908 9.375C9.58908 7.926 10.7651 6.75 12.2183 6.75C12.5633 6.74959 12.9049 6.81718 13.2238 6.94891C13.5426 7.08065 13.8324 7.27394 14.0765 7.51773C14.3206 7.76153 14.5142 8.05104 14.6463 8.36973C14.7784 8.68841 14.8464 9.03002 14.8464 9.375Z" stroke="white" stroke-width="1.6" stroke-linecap="round" stroke-linejoin="round"/>
</g>
</svg>
