<svg width="21" height="20" viewBox="0 0 21 20" fill="none" xmlns="http://www.w3.org/2000/svg">
<path opacity="0.32" d="M13.2083 9.06944C14.1955 9.06944 15.1423 8.67728 15.8403 7.97923C16.5384 7.28118 16.9305 6.33442 16.9305 5.34722C16.9305 4.36003 16.5384 3.41327 15.8403 2.71521C15.1423 2.01716 14.1955 1.625 13.2083 1.625M15.0694 11.8611C16.3034 11.8611 17.4869 12.3513 18.3594 13.2239C19.232 14.0964 19.7222 15.2799 19.7222 16.5139C19.7222 17.0075 19.5261 17.4809 19.1771 17.8299C18.8281 18.1789 18.3547 18.375 17.8611 18.375H16.4653M11.3472 5.34722C11.3472 6.33442 10.955 7.28118 10.257 7.97923C9.55893 8.67728 8.61217 9.06944 7.62497 9.06944C6.63778 9.06944 5.69102 8.67728 4.99296 7.97923C4.29491 7.28118 3.90275 6.33442 3.90275 5.34722C3.90275 4.36003 4.29491 3.41327 4.99296 2.71521C5.69102 2.01716 6.63778 1.625 7.62497 1.625C8.61217 1.625 9.55893 2.01716 10.257 2.71521C10.955 3.41327 11.3472 4.36003 11.3472 5.34722ZM9.48608 11.8611H5.76386C4.52987 11.8611 3.34642 12.3513 2.47385 13.2239C1.60129 14.0964 1.11108 15.2799 1.11108 16.5139C1.11108 17.0075 1.30716 17.4809 1.65619 17.8299C2.00522 18.1789 2.4786 18.375 2.9722 18.375H12.2778C12.7713 18.375 13.2447 18.1789 13.5938 17.8299C13.9428 17.4809 14.1389 17.0075 14.1389 16.5139C14.1389 15.2799 13.6487 14.0964 12.7761 13.2239C11.9035 12.3513 10.7201 11.8611 9.48608 11.8611Z" stroke="white" stroke-width="1.6" stroke-linecap="round" stroke-linejoin="round"/>
</svg>
