<svg width="19" height="22" viewBox="0 0 19 22" fill="none" xmlns="http://www.w3.org/2000/svg">
<path fill-rule="evenodd" clip-rule="evenodd" d="M13.0383 5.43958C12.379 5.43958 11.8111 6.02962 11.8111 6.66627V8.813C11.8111 9.44965 12.379 10.0397 13.0383 10.0397H15.0838C15.7432 10.0397 16.3111 9.44965 16.3111 8.813V6.66627C16.3111 5.9824 15.7795 5.43958 15.1657 5.43958H13.0383ZM10.0111 6.66627C10.0111 4.99108 11.4068 3.59953 13.0383 3.59953H15.1657C16.8427 3.59953 18.1111 5.03829 18.1111 6.66627V8.813C18.1111 10.4882 16.7154 11.8797 15.0838 11.8797H13.0383C11.4068 11.8797 10.0111 10.4882 10.0111 8.813V6.66627ZM3.13836 11.8797C2.47897 11.8797 1.91108 12.4697 1.91108 13.1064V15.2532C1.91108 15.8295 2.42216 16.4123 3.1735 16.4798H5.18381C5.84319 16.4798 6.41108 15.8898 6.41108 15.2532V13.1064C6.41108 12.4225 5.87947 11.8797 5.26563 11.8797H3.13836ZM0.111084 13.1064C0.111084 11.4312 1.50683 10.0397 3.13836 10.0397H5.26563C6.9427 10.0397 8.21108 11.4784 8.21108 13.1064V15.2532C8.21108 16.9284 6.81534 18.3199 5.18381 18.3199H3.13836C3.11724 18.3199 3.09612 18.3192 3.07505 18.3176C1.55085 18.2078 0.111084 16.9815 0.111084 15.2532V13.1064ZM13.0383 15.5598C12.379 15.5598 11.8111 16.1498 11.8111 16.7865V18.9333C11.8111 19.5699 12.379 20.16 13.0383 20.16H15.0838C15.7432 20.16 16.3111 19.5699 16.3111 18.9333V16.7865C16.3111 16.1026 15.7795 15.5598 15.1657 15.5598H13.0383ZM10.0111 16.7865C10.0111 15.1113 11.4068 13.7198 13.0383 13.7198H15.1657C16.8427 13.7198 18.1111 15.1585 18.1111 16.7865V18.9333C18.1111 20.6085 16.7154 22 15.0838 22H13.0383C11.4068 22 10.0111 20.6085 10.0111 18.9333V16.7865Z" fill="#888888"/>
<path d="M5.07744 0.6055L5.82283 2.09259C5.88621 2.20413 5.97259 2.30123 6.07636 2.37759C6.18013 2.45395 6.29897 2.50786 6.42516 2.53584L7.77571 2.75932C8.63968 2.90365 8.84297 3.52847 8.21993 4.14584L7.16961 5.19342C7.07771 5.29642 7.01025 5.41843 6.97215 5.55054C6.93404 5.68265 6.92626 5.82152 6.94938 5.95699L7.25055 7.25505C7.48772 8.28121 6.94091 8.67883 6.03082 8.14154L4.76498 7.3938C4.53534 7.25878 4.15888 7.25878 3.92641 7.3938L2.65963 8.14154C1.7533 8.67883 1.20273 8.27749 1.4399 7.25505L1.74107 5.95792C1.76433 5.82231 1.75663 5.68326 1.71852 5.55098C1.68041 5.41869 1.61287 5.29652 1.52084 5.19342L0.470517 4.14584C-0.147817 3.52847 0.0517066 2.90365 0.914739 2.76025L2.26623 2.53677C2.39149 2.50798 2.50928 2.45359 2.61203 2.3771C2.71479 2.3006 2.80025 2.2037 2.86292 2.09259L3.6083 0.6055C4.01488 -0.201833 4.67557 -0.201833 5.07744 0.6055Z" fill="#888888"/>
</svg>
